<svg xmlns="http://www.w3.org/2000/svg" xmlns:xlink="http://www.w3.org/1999/xlink" width="100" zoomAndPan="magnify" viewBox="0 0 75 74.999997" height="100" preserveAspectRatio="xMidYMid meet" version="1.0"><defs><g/><clipPath id="2744dd5738"><path d="M 7.445312 7.308594 L 67.445312 7.308594 L 67.445312 68 L 7.445312 68 Z M 7.445312 7.308594 " clip-rule="nonzero"/></clipPath></defs><g clip-path="url(#2744dd5738)"><path fill="#ff5400" d="M 38.402344 7.769531 L 36.875 7.898438 L 35.351562 8.023438 L 35.875 8.0625 L 38.402344 7.769531 M 41.945312 11.054688 L 41.769531 11.066406 L 41.804688 11.074219 L 41.945312 11.054688 M 41.109375 11.113281 L 39.128906 11.25 L 39.875 11.347656 L 41.253906 11.152344 L 41.109375 11.113281 M 36.347656 11.824219 L 36.40625 11.832031 L 36.195312 11.863281 L 36.347656 11.824219 M 33.925781 11.398438 L 32.089844 11.960938 L 32.621094 11.578125 L 33.925781 11.398438 M 34.40625 12.339844 L 34.34375 12.339844 L 34.121094 12.414062 C 34.214844 12.390625 34.3125 12.363281 34.40625 12.339844 M 39.375 12.21875 L 41.410156 12.484375 L 41.5 12.578125 L 39.378906 12.25 L 37.253906 12.449219 L 35.105469 12.320312 L 39.375 12.21875 M 43.816406 12.824219 L 43.871094 12.839844 L 43.859375 12.839844 C 43.84375 12.835938 43.832031 12.828125 43.816406 12.824219 M 37.546875 7.347656 L 43.375 8.71875 L 46.449219 9.164062 L 50.019531 10.804688 L 54.308594 13.003906 L 49.019531 9.800781 L 47.429688 9.136719 L 42.285156 7.582031 L 37.546875 7.347656 M 44.089844 12.945312 L 44.304688 12.996094 L 44.402344 13.03125 L 44.21875 13 L 44.089844 12.945312 M 41.804688 11.074219 L 41.253906 11.152344 L 48.609375 13.148438 L 48.3125 12.980469 L 44.175781 11.554688 L 41.804688 11.074219 M 36.128906 11.796875 L 36.335938 11.824219 L 36.183594 11.863281 L 35.917969 11.902344 L 32.699219 12.714844 L 36.132812 11.878906 L 34.40625 12.339844 L 34.941406 12.324219 L 33.152344 12.832031 L 32.835938 12.863281 L 32.5625 12.984375 L 32.375 13.003906 L 34.121094 12.414062 L 32.074219 12.960938 L 31.96875 13.039062 L 30.503906 13.171875 L 30.855469 13.015625 L 36.128906 11.796875 M 31.710938 13.226562 L 31.679688 13.25 C 31.601562 13.273438 31.527344 13.292969 31.449219 13.316406 C 31.535156 13.285156 31.625 13.257812 31.710938 13.226562 M 48.609375 13.148438 L 48.765625 13.238281 L 48.925781 13.328125 L 48.984375 13.25 L 48.609375 13.148438 M 37.929688 8.738281 L 31.53125 10.46875 L 26.019531 13.046875 L 25.613281 13.335938 L 26.175781 13.109375 L 26.433594 12.925781 L 32.113281 10.363281 L 37.863281 8.867188 L 37.929688 8.738281 M 28.839844 10.992188 L 27.265625 11.179688 L 22.933594 13.488281 L 27.902344 11.210938 L 23.789062 13.296875 L 28.839844 10.992188 M 27.535156 13.046875 L 27.304688 13.292969 L 27.070312 13.539062 L 25.960938 13.898438 C 26.484375 13.617188 27.011719 13.332031 27.535156 13.046875 M 29.980469 13.808594 L 28.96875 14.234375 L 29.183594 14.078125 L 29.980469 13.808594 M 47.71875 14.199219 L 47.84375 14.265625 L 47.972656 14.328125 C 48.046875 14.34375 48.125 14.359375 48.199219 14.371094 C 48.039062 14.316406 47.878906 14.257812 47.71875 14.199219 M 49.742188 14.617188 L 50.769531 14.84375 L 49.835938 14.671875 L 49.742188 14.617188 M 27.757812 15.117188 L 27.601562 15.226562 C 27.683594 15.191406 27.765625 15.152344 27.847656 15.117188 C 27.816406 15.117188 27.789062 15.117188 27.757812 15.117188 M 46.191406 13.835938 L 47.503906 14.125 L 47.71875 14.199219 L 47.617188 14.148438 L 48.515625 14.347656 L 48.675781 14.460938 L 48.199219 14.371094 L 48.917969 14.625 L 49.917969 15.3125 L 49.300781 15 L 48.878906 14.710938 L 49.070312 14.882812 L 47.972656 14.328125 L 46.4375 14.046875 L 46.007812 13.835938 L 46.191406 13.835938 M 56.605469 15.457031 L 56.617188 15.46875 L 56.613281 15.460938 L 56.605469 15.457031 M 54.910156 15.226562 L 54.859375 15.234375 L 54.808594 15.238281 L 55.484375 15.769531 C 55.292969 15.589844 55.101562 15.410156 54.910156 15.226562 M 54.4375 15.277344 L 54.765625 15.578125 L 55.097656 15.882812 C 54.847656 15.683594 54.597656 15.484375 54.34375 15.285156 L 54.4375 15.277344 M 31.277344 13.542969 L 31.191406 13.605469 L 27.847656 15.117188 L 28.792969 15.136719 L 28.6875 15.398438 L 26.835938 15.785156 L 27.601562 15.226562 L 26.707031 15.632812 L 26.464844 15.863281 L 26.441406 15.867188 L 26.316406 15.933594 L 27.34375 15.105469 L 27.757812 15.117188 L 28.8125 14.347656 L 31.277344 13.542969 M 24.523438 14.296875 L 24.183594 14.445312 L 23.847656 14.597656 C 23.136719 15.105469 22.425781 15.617188 21.714844 16.125 L 23.074219 15.332031 L 24.523438 14.296875 M 21.714844 16.125 L 21.003906 16.539062 L 20.816406 16.730469 L 20.828125 16.839844 L 21.128906 16.546875 L 21.714844 16.125 M 52.167969 12.972656 L 57.164062 16.988281 L 57.195312 16.996094 L 54.960938 14.425781 L 52.167969 12.972656 M 25.570312 16.707031 L 25.277344 16.984375 L 24.980469 17.261719 C 24.917969 17.292969 24.851562 17.324219 24.785156 17.355469 L 24.988281 17.132812 L 25.570312 16.707031 M 20.828125 16.839844 L 19.992188 17.660156 C 20.28125 17.488281 20.566406 17.316406 20.851562 17.140625 C 20.84375 17.042969 20.835938 16.941406 20.828125 16.839844 M 21.347656 16.1875 L 20.074219 17.164062 L 19.351562 18.046875 L 19.789062 17.785156 L 20.816406 16.730469 L 20.8125 16.652344 L 21.003906 16.539062 L 21.347656 16.1875 M 22.519531 17.476562 L 22.078125 17.898438 L 21.640625 18.320312 L 22.121094 17.757812 L 22.519531 17.476562 M 56.617188 15.46875 L 60.328125 19.585938 C 59.75 18.734375 59.175781 17.882812 58.601562 17.03125 L 56.617188 15.46875 M 49.570312 19.324219 L 49.6875 19.386719 L 49.800781 19.449219 L 50.199219 19.875 L 50.011719 19.757812 L 49.570312 19.324219 M 21.3125 14.222656 L 19.566406 15.347656 L 15.554688 20.015625 L 18.761719 16.382812 L 21.691406 14.480469 L 21.3125 14.222656 M 54.949219 20.242188 L 55.039062 20.3125 L 55.125 20.378906 L 54.960938 20.265625 L 54.949219 20.242188 M 59.535156 19.6875 L 60.070312 20.414062 L 60.601562 21.136719 L 60.421875 20.707031 L 59.535156 19.6875 M 56.851562 18.507812 L 57.019531 19.109375 L 57.015625 19.132812 L 56.875 18.988281 L 57.550781 20.59375 L 58.15625 21.152344 L 56.851562 18.507812 M 19.367188 21.285156 L 19.308594 21.382812 L 19.304688 21.386719 L 19.367188 21.285156 M 50.722656 18.367188 L 52.339844 19.75 L 53.957031 21.128906 L 54.140625 21.429688 L 51.453125 19.191406 L 50.722656 18.367188 M 56.359375 17.683594 L 58.28125 20.488281 L 58.957031 21.460938 C 58.640625 20.707031 58.324219 19.957031 58.007812 19.203125 L 56.359375 17.683594 M 58.691406 19.957031 L 59.246094 20.773438 L 59.796875 21.59375 L 59.394531 20.914062 L 58.691406 19.957031 M 58.203125 21.976562 L 58.203125 21.980469 L 58.207031 21.984375 C 58.214844 21.992188 58.222656 22 58.230469 22.007812 L 58.203125 21.976562 M 54.332031 22.125 L 54.363281 22.171875 L 54.335938 22.128906 L 54.332031 22.125 M 23.449219 20.550781 L 23.347656 20.601562 L 23.25 20.652344 C 22.628906 21.203125 22.007812 21.753906 21.382812 22.308594 C 21.945312 21.886719 22.503906 21.46875 23.0625 21.046875 L 23.449219 20.550781 M 39.800781 23.519531 L 39.703125 23.535156 L 39.609375 23.550781 L 39.644531 23.523438 C 39.695312 23.523438 39.746094 23.519531 39.800781 23.519531 M 41.917969 23.4375 L 41.5 23.617188 L 41.078125 23.472656 L 41.917969 23.4375 M 36.171875 23.804688 L 35.34375 24.257812 L 34.699219 24.363281 L 34.972656 24.003906 L 36.171875 23.804688 M 64.121094 20.242188 L 64.941406 22.574219 L 65.765625 24.902344 C 65.6875 24.558594 65.609375 24.214844 65.53125 23.871094 L 64.121094 20.242188 M 57.285156 15.300781 L 60.179688 18.703125 L 61.867188 21.933594 L 62.980469 24.367188 L 63.390625 24.921875 L 63.410156 24.980469 L 63.167969 23.644531 L 60.746094 19.359375 L 57.285156 15.300781 M 33.488281 24.953125 L 33.214844 25.304688 L 33.199219 25.316406 L 32.675781 25.804688 L 33.488281 24.953125 M 23.863281 20.015625 L 23.449219 20.550781 L 24.292969 20.125 L 23.0625 21.046875 L 22.429688 21.859375 L 22.015625 22.804688 L 19.84375 25.519531 L 18.992188 27.078125 L 19.253906 26.28125 L 21.914062 22.46875 L 18.953125 26.453125 L 21.050781 22.726562 L 22.609375 20.734375 L 23.863281 20.015625 M 62.140625 24.949219 L 62.230469 25.371094 L 63.121094 27.875 L 62.84375 26.464844 L 62.261719 25.082031 L 62.140625 24.949219 M 53.777344 21.214844 L 54.304688 21.691406 L 56.480469 25.238281 L 56.828125 26.230469 L 54.363281 22.171875 L 57.320312 27.644531 L 57.476562 28.089844 L 56.144531 26.214844 L 54.292969 22.257812 L 53.746094 21.71875 L 54.332031 22.125 L 53.777344 21.214844 M 63.121094 27.875 L 63.136719 27.964844 L 63.15625 28.058594 L 63.335938 28.488281 C 63.265625 28.285156 63.191406 28.078125 63.121094 27.875 M 62.441406 26.367188 L 62.574219 27 L 62.710938 27.628906 L 63.285156 28.71875 C 63.242188 28.496094 63.199219 28.277344 63.15625 28.058594 L 62.441406 26.367188 M 18.851562 26.636719 L 18.589844 27.472656 L 18.324219 28.3125 C 18.234375 28.480469 18.140625 28.648438 18.050781 28.820312 L 18.386719 27.460938 L 18.851562 26.636719 M 15.984375 28.761719 L 15.945312 28.910156 L 15.886719 29.011719 L 15.984375 28.761719 M 63.335938 28.488281 L 63.449219 28.804688 L 63.5625 29.117188 C 63.546875 29.046875 63.53125 28.976562 63.515625 28.90625 L 63.335938 28.488281 M 63.699219 30.019531 L 63.6875 30.300781 L 63.671875 30.578125 L 63.742188 30.75 C 63.726562 30.503906 63.710938 30.261719 63.699219 30.019531 M 29.867188 30.941406 L 29.855469 30.984375 L 29.839844 31.023438 C 29.839844 31.015625 29.839844 31.003906 29.835938 30.996094 C 29.847656 30.976562 29.859375 30.960938 29.867188 30.941406 M 30.554688 29.792969 L 29.996094 32.039062 L 29.917969 31.535156 L 30.453125 29.960938 L 30.554688 29.792969 M 29.9375 29.769531 L 29.601562 31.082031 L 29.265625 32.398438 L 29.667969 30.199219 L 29.9375 29.769531 M 63.742188 30.75 L 63.765625 31.207031 L 63.792969 31.667969 L 64.242188 32.742188 L 63.941406 31.253906 L 63.742188 30.75 M 57.898438 29.707031 L 58.09375 30.632812 L 58.289062 31.554688 C 58.234375 31.40625 58.175781 31.257812 58.121094 31.105469 L 58.316406 33.140625 C 58.175781 31.996094 58.039062 30.851562 57.898438 29.707031 M 58.289062 28.660156 L 58.804688 30.296875 L 59.324219 31.933594 L 59.535156 33.320312 L 58.59375 29.875 L 58.289062 28.660156 M 63.640625 31.296875 L 63.609375 32.019531 L 63.601562 32.574219 L 63.917969 33.746094 L 63.792969 31.667969 L 63.640625 31.296875 M 9.925781 27.96875 L 9.910156 28.46875 L 9.894531 28.964844 C 9.929688 29.273438 9.96875 29.582031 10.003906 29.886719 C 9.472656 31.375 8.945312 32.859375 8.414062 34.34375 L 9.925781 27.96875 M 65.765625 24.902344 L 66.898438 29.953125 L 67.476562 35.164062 L 67.0625 29.207031 L 66.570312 27.675781 L 66.488281 26.960938 L 65.765625 24.902344 M 37.46875 35.296875 L 37.46875 35.339844 L 37.464844 35.382812 L 37.460938 35.398438 C 37.464844 35.363281 37.46875 35.328125 37.46875 35.296875 M 58.839844 35.554688 L 58.851562 35.679688 L 58.867188 35.800781 L 58.847656 35.972656 L 58.804688 35.75 L 58.839844 35.554688 M 39.636719 35.765625 L 39.507812 36.132812 L 39.375 36.496094 L 39.363281 36.234375 C 39.457031 36.078125 39.546875 35.921875 39.636719 35.765625 M 58.746094 36.066406 L 58.765625 36.667969 L 58.753906 36.761719 C 58.738281 36.613281 58.71875 36.46875 58.699219 36.324219 L 58.746094 36.066406 M 65.746094 34.429688 L 65.777344 35.691406 L 65.8125 36.957031 L 65.902344 35.882812 C 65.847656 35.398438 65.796875 34.914062 65.746094 34.429688 M 59.796875 35 L 59.945312 35.96875 L 60.097656 36.9375 C 60.082031 37.121094 60.066406 37.304688 60.054688 37.492188 L 59.796875 35 M 39.742188 37.375 L 39.585938 37.644531 L 39.425781 37.917969 L 39.414062 37.535156 C 39.523438 37.480469 39.632812 37.425781 39.742188 37.375 M 50.660156 37.816406 L 50.664062 37.832031 L 50.667969 37.84375 L 50.617188 37.976562 C 50.628906 37.921875 50.644531 37.871094 50.660156 37.816406 M 58.621094 36.761719 L 58.722656 37.015625 L 58.59375 38.132812 C 58.574219 37.945312 58.558594 37.753906 58.539062 37.566406 C 58.535156 37.464844 58.535156 37.363281 58.53125 37.261719 L 58.621094 36.761719 M 58.996094 37.679688 L 59.070312 37.867188 L 59.082031 37.996094 L 58.976562 38.59375 L 58.941406 38.316406 L 59.007812 38.0625 C 59.003906 37.933594 59 37.804688 58.996094 37.679688 M 38.980469 37.402344 L 39.222656 37.554688 L 39.28125 38.164062 L 38.753906 39.074219 L 38.980469 37.402344 M 65.359375 37.554688 L 65.304688 37.925781 L 65.246094 38.292969 C 65.195312 38.890625 65.144531 39.484375 65.09375 40.082031 C 65.207031 39.734375 65.316406 39.386719 65.425781 39.039062 L 65.359375 37.554688 M 57.910156 40.425781 L 57.910156 40.429688 C 57.90625 40.4375 57.90625 40.441406 57.902344 40.445312 C 57.90625 40.4375 57.90625 40.433594 57.910156 40.425781 M 58.824219 38.773438 L 58.863281 40.101562 L 58.902344 41.433594 C 58.832031 40.710938 58.765625 39.988281 58.699219 39.265625 C 58.742188 39.101562 58.78125 38.9375 58.824219 38.773438 M 28.109375 43.152344 L 28.164062 43.347656 L 28.214844 43.546875 C 28.195312 43.53125 28.175781 43.519531 28.15625 43.503906 C 28.140625 43.386719 28.125 43.269531 28.109375 43.152344 M 28.839844 43.84375 L 28.9375 43.980469 L 29.035156 44.121094 L 28.871094 44.007812 C 28.859375 43.953125 28.851562 43.898438 28.839844 43.84375 M 66.574219 36.558594 L 66.128906 37.433594 L 65.886719 39.65625 L 65.914062 40.722656 L 65.699219 41.375 L 65.597656 42.3125 L 65.316406 44.355469 L 66.019531 42.265625 L 66.441406 41.785156 L 66.574219 36.558594 M 10.230469 34.097656 L 9.671875 37.847656 L 9.714844 39.28125 L 10.996094 44.542969 L 10.46875 41.484375 L 9.988281 38.199219 L 10.230469 34.097656 M 27.292969 43.6875 L 27.539062 43.992188 L 27.734375 44.59375 L 27.554688 44.46875 L 27.292969 43.6875 M 28.351562 45.007812 L 28.359375 45.019531 L 28.367188 45.027344 L 28.351562 45.019531 L 28.351562 45.007812 M 28.273438 44.421875 L 28.496094 44.621094 L 28.65625 45.226562 L 28.453125 45.089844 L 28.339844 44.925781 L 28.273438 44.421875 M 29.546875 45.578125 L 29.648438 45.671875 L 29.789062 46.003906 L 29.722656 45.960938 L 29.546875 45.578125 M 16.164062 46.003906 L 16.167969 46.011719 L 16.167969 46.019531 L 16.164062 46.003906 M 10.128906 43.261719 L 10.871094 44.921875 L 11.613281 46.578125 C 11.621094 46.585938 11.628906 46.59375 11.632812 46.597656 L 10.128906 43.261719 M 62.832031 42.890625 L 62.535156 43.617188 L 61.582031 45.636719 L 61.277344 46.652344 L 61.683594 46.769531 L 62.832031 42.890625 M 55.652344 45.492188 L 55.453125 45.953125 L 55.25 46.414062 L 54.667969 47.445312 C 54.996094 46.796875 55.324219 46.144531 55.652344 45.492188 M 65.8125 36.957031 L 65.378906 42.191406 L 64.417969 44.730469 L 63.351562 47.8125 L 63.78125 47.167969 L 65.699219 41.375 L 65.886719 39.65625 L 65.8125 36.957031 M 16.316406 45.507812 L 17.707031 48.109375 C 17.5625 47.925781 17.417969 47.738281 17.269531 47.554688 L 16.316406 45.507812 M 28.464844 48.28125 L 29.648438 49.382812 L 29.421875 49.359375 L 28.742188 48.734375 L 28.464844 48.28125 M 28.140625 46.238281 L 28.292969 46.308594 L 28.699219 47.558594 L 30.167969 49.425781 L 30.03125 49.414062 L 28.738281 48.03125 L 28.140625 46.238281 M 29.902344 48.957031 L 30.171875 49.222656 L 30.339844 49.441406 L 30.261719 49.4375 L 29.902344 48.957031 M 33.527344 49.433594 L 34.023438 49.695312 L 33.730469 49.742188 L 33.527344 49.433594 M 30.5625 49.746094 L 30.578125 49.746094 L 30.585938 49.761719 L 30.5625 49.746094 M 63.351562 47.8125 L 63.039062 48.277344 L 62.730469 48.742188 C 62.671875 49.195312 62.617188 49.648438 62.5625 50.101562 C 62.824219 49.335938 63.089844 48.574219 63.351562 47.8125 M 34.4375 50.039062 L 34.601562 50.234375 L 34.507812 50.238281 L 33.984375 50.125 L 33.980469 50.125 L 34.4375 50.039062 M 17.710938 49.425781 L 17.882812 49.648438 L 18.265625 50.488281 L 17.710938 49.425781 M 59.972656 46.914062 L 57.84375 50.5625 L 57.625 50.667969 L 58.027344 49.855469 L 59.972656 46.914062 M 31.550781 51.15625 L 31.957031 51.53125 L 32.269531 51.9375 L 32.214844 51.921875 L 31.929688 51.660156 L 31.550781 51.15625 M 59.648438 51.988281 L 59.59375 52.074219 C 59.597656 52.070312 59.605469 52.0625 59.613281 52.058594 L 59.648438 51.988281 M 19.59375 51.925781 L 19.796875 52.066406 L 19.816406 52.09375 C 19.742188 52.039062 19.667969 51.984375 19.59375 51.925781 M 57.429688 52.953125 L 57.214844 53.203125 L 57.183594 53.21875 L 57.164062 53.183594 L 57.429688 52.953125 M 62.304688 46.96875 L 59.648438 51.988281 L 61.4375 49.253906 L 60.667969 51.144531 L 59.613281 52.058594 L 59.128906 52.96875 L 58.835938 53.234375 L 59.59375 52.074219 L 59.316406 52.316406 L 62.304688 46.96875 M 55.238281 53.960938 L 55.125 54.101562 L 55.015625 54.246094 C 55.011719 54.25 55.003906 54.25 55 54.253906 L 55.238281 53.960938 M 22.84375 54.355469 L 23.222656 54.546875 L 23.273438 54.601562 L 22.917969 54.414062 L 22.84375 54.355469 M 55.378906 54.722656 L 55.050781 55.046875 L 54.71875 55.375 C 54.667969 55.390625 54.617188 55.40625 54.566406 55.425781 C 54.835938 55.191406 55.109375 54.957031 55.378906 54.722656 M 23.523438 55.371094 L 24.554688 56.015625 L 24.582031 56.046875 L 23.527344 55.375 L 23.523438 55.371094 M 48.410156 56.363281 L 46.1875 57.527344 L 47.015625 57.035156 L 48.410156 56.363281 M 58.476562 51.761719 L 57.847656 52.476562 L 58.109375 52.027344 L 57.070312 53.015625 L 56.875 52.664062 L 56.8125 52.722656 L 56.777344 53.082031 L 55.835938 54.191406 L 54.527344 55.4375 L 53.863281 55.65625 L 53.75 55.800781 L 53.855469 55.660156 L 53.394531 55.8125 L 52.429688 56.449219 L 50.878906 57.6875 L 53.078125 56.707031 L 54.300781 55.652344 L 53.957031 55.980469 L 56.554688 53.957031 L 55.496094 55.164062 L 56.132812 54.726562 L 55.175781 55.875 L 57.335938 53.34375 L 57.679688 53.078125 L 58.546875 51.96875 L 58.476562 51.761719 M 67.0625 45.414062 L 64.476562 51.199219 L 63.175781 53.3125 L 63.085938 54.460938 L 59.792969 57.878906 L 60.699219 57.441406 L 64.273438 53.464844 L 66.28125 50.375 L 65.410156 51.292969 L 67.0625 45.414062 M 49.957031 57.238281 L 49.804688 57.378906 L 48.777344 57.894531 L 48.550781 57.910156 L 49.957031 57.238281 M 14.792969 55.113281 L 14.9375 55.609375 L 15.082031 56.101562 L 17.441406 58.199219 C 17.382812 58.0625 17.324219 57.925781 17.265625 57.789062 C 16.441406 56.898438 15.617188 56.007812 14.792969 55.113281 M 44.148438 58.046875 L 44.921875 58.261719 L 44.445312 58.460938 L 44.054688 58.363281 L 43.585938 58.367188 L 43.402344 58.308594 L 44.148438 58.046875 M 27.277344 59 L 27.292969 59.007812 L 27.304688 59.011719 L 27.277344 59 M 46.90625 58.832031 L 45.910156 59.332031 L 44.800781 59.316406 L 45.183594 59.1875 L 46.90625 58.832031 M 42.074219 58.96875 L 42.886719 59.074219 L 41.78125 59.34375 L 40.683594 59.269531 L 41.386719 59.019531 L 42.074219 58.96875 M 59.40625 56.035156 L 59.050781 56.214844 L 58.695312 56.390625 L 54.746094 60.046875 C 56.300781 58.710938 57.851562 57.375 59.40625 56.035156 M 66.980469 51.371094 L 65.695312 53.101562 L 64.414062 54.828125 L 59.292969 60.074219 L 63.390625 56.464844 L 66.980469 51.371094 M 42.238281 60.199219 L 42.257812 60.199219 C 42.246094 60.199219 42.238281 60.203125 42.226562 60.203125 L 42.238281 60.199219 M 59.292969 60.074219 L 59.183594 60.167969 L 59.070312 60.265625 C 59.09375 60.253906 59.117188 60.238281 59.140625 60.226562 C 59.191406 60.175781 59.242188 60.125 59.292969 60.074219 M 11.632812 46.597656 L 12.875 49.34375 L 17.167969 54.96875 L 20.507812 58.101562 L 23.445312 60.019531 L 24.675781 60.386719 L 22.542969 58.9375 L 20.722656 57.261719 L 19.039062 56.230469 L 14.285156 50.683594 L 11.84375 46.808594 L 11.632812 46.597656 M 27.015625 58.675781 L 27.304688 59.011719 L 28.507812 59.539062 L 28.464844 59.527344 L 27.304688 59.011719 L 27.320312 59.027344 L 28.101562 59.417969 L 27.507812 59.246094 L 27.695312 59.464844 L 30.390625 60.5 L 30.789062 60.554688 L 29.960938 60.1875 L 29.984375 60.183594 L 30.851562 60.5625 L 31.085938 60.59375 L 30.273438 60.148438 L 30.507812 60.121094 L 29.894531 59.941406 L 29.328125 59.632812 L 27.015625 58.675781 M 34.015625 60.988281 L 34.046875 60.996094 L 33.980469 60.988281 C 33.992188 60.988281 34.003906 60.988281 34.015625 60.988281 M 34.0625 60.984375 L 38.574219 61.121094 L 38.867188 61.152344 L 36.058594 61.269531 L 34.3125 61.03125 L 34.050781 60.984375 L 34.0625 60.984375 M 22.046875 56.128906 L 26.769531 59.03125 L 27.507812 59.246094 L 27.320312 59.027344 L 24.761719 57.746094 L 27.015625 58.675781 L 26.5 58.082031 L 29.328125 59.632812 L 30.507812 60.121094 L 33.066406 60.863281 L 31.085938 60.59375 L 31.714844 60.9375 L 30.851562 60.5625 L 30.789062 60.554688 L 32.484375 61.304688 L 30.390625 60.5 L 29.3125 60.351562 L 24.289062 57.828125 L 22.046875 56.128906 M 51.730469 59.988281 L 49.265625 61.121094 L 49.144531 61.359375 L 47.105469 61.683594 L 47.769531 61.230469 L 49.332031 60.765625 L 49.65625 60.574219 L 51.730469 59.988281 M 54.835938 61.042969 L 53.285156 61.683594 L 51.730469 62.320312 L 52.738281 62.035156 C 53.4375 61.707031 54.136719 61.375 54.835938 61.042969 M 33.011719 61.507812 L 39.851562 62.828125 L 41.871094 63.121094 L 40.320312 63.339844 L 34.902344 62.230469 L 33.011719 61.507812 M 59.070312 60.265625 L 56.285156 61.863281 L 53.5 63.464844 L 57.632812 61.53125 L 59.070312 60.265625 M 35.507812 9.578125 L 31.367188 11.203125 C 31.246094 11.066406 29.515625 11.703125 26.175781 13.109375 L 24.523438 14.296875 L 25.996094 13.632812 C 23.585938 14.964844 22.101562 15.898438 21.539062 16.433594 L 17.121094 21.121094 L 19.992188 17.660156 L 18.445312 19.164062 L 19.351562 18.046875 L 18.621094 18.277344 L 22.410156 15.09375 L 21.347656 16.1875 L 22.804688 15.066406 C 23.261719 15.019531 24.195312 14.441406 25.613281 13.335938 L 24.339844 13.847656 L 24.871094 13.101562 L 22.097656 14.929688 L 17.847656 18.910156 L 14.523438 23.53125 L 11.648438 30.664062 L 13.582031 24.726562 L 13.257812 24.671875 L 12.4375 26.296875 L 11.195312 30.84375 L 10.367188 36.605469 L 10.996094 42.773438 L 13.585938 48.40625 L 17.132812 53.527344 L 21.648438 57.742188 L 27.027344 60.996094 L 33.003906 62.925781 L 39.082031 63.46875 C 37.242188 63.578125 35.078125 63.550781 32.589844 63.382812 L 39.15625 63.832031 L 44.695312 63.386719 L 45.65625 62.894531 L 53.320312 60.378906 L 58.695312 56.390625 L 62.929688 52.464844 L 65.132812 47.875 L 60.082031 54.070312 L 55.59375 58.113281 L 54.394531 58.332031 L 57.742188 56.007812 L 60.152344 53.710938 C 60.410156 53.125 60.449219 52.839844 60.265625 52.855469 L 59.617188 53.402344 L 62.730469 48.742188 L 64.71875 43.417969 L 65.292969 40.828125 L 65.015625 41.03125 L 65.09375 40.082031 L 64.847656 40.863281 L 65.246094 38.292969 L 65.34375 37.152344 L 65.359375 37.554688 L 65.578125 36.164062 C 65.410156 35.1875 65.351562 33.535156 65.398438 31.203125 L 65.746094 34.429688 L 65.667969 31.5 L 65.3125 30.40625 L 65.320312 30.503906 L 63.410156 24.980469 L 63.507812 25.523438 L 62.980469 24.367188 L 60.601562 21.136719 L 62.261719 25.082031 L 62.65625 25.515625 L 63.515625 28.90625 L 65.097656 32.390625 L 65.179688 33.554688 L 64.761719 34.40625 L 64.480469 37.972656 C 64.539062 36.0625 64.347656 34.65625 63.917969 33.746094 L 64.03125 35.691406 L 63.234375 41.519531 L 62.832031 42.890625 L 63.898438 40.242188 L 62.019531 46.140625 L 62.457031 45.46875 L 64.445312 38.433594 L 64.367188 39.414062 L 62.644531 45.523438 L 59.570312 51.507812 L 60.335938 49.679688 L 58.546875 51.96875 L 58.675781 52.328125 L 57.679688 53.078125 L 56.148438 55.035156 C 55.289062 55.863281 54.816406 56.199219 54.730469 56.035156 L 55.496094 55.164062 L 51.371094 57.988281 L 49.722656 58.476562 L 53.664062 55.460938 C 53.960938 55.363281 54.191406 55.210938 54.359375 54.996094 L 53.863281 55.65625 L 54.527344 54.839844 L 56.8125 52.722656 L 56.824219 52.578125 L 56.875 52.664062 L 58.734375 50.941406 L 58.109375 52.027344 C 58.246094 52.023438 58.597656 51.671875 59.164062 50.972656 L 61.164062 46.738281 L 60.59375 47.722656 C 61.101562 47.242188 61.910156 44.941406 63.019531 40.832031 L 63.539062 37.535156 L 63.601562 32.574219 L 62.765625 29.457031 C 63.105469 30 63.394531 30.613281 63.640625 31.296875 L 63.671875 30.578125 L 61.539062 25.179688 L 60.535156 24.246094 L 58.09375 20.890625 L 58.554688 22.667969 L 58.085938 21.871094 C 58.035156 21.804688 58.074219 21.839844 58.203125 21.976562 C 58.101562 21.910156 57.886719 21.449219 57.550781 20.59375 C 56.710938 19.996094 55.761719 18.953125 54.703125 17.460938 L 51.652344 15.078125 L 51.785156 14.945312 L 48.925781 13.328125 L 48.714844 13.597656 L 47.554688 13.351562 L 41.949219 11.800781 L 41.519531 11.558594 L 39.875 11.347656 L 36.355469 11.824219 L 39.128906 11.25 L 37.023438 10.972656 L 39.398438 10.648438 C 40.886719 11.128906 41.675781 11.265625 41.769531 11.066406 L 39.570312 10.625 L 40.355469 10.515625 L 47.746094 12.230469 L 54.628906 16.089844 L 56.359375 17.683594 L 56.203125 17.050781 L 58.691406 19.957031 L 57.3125 17.910156 L 57.976562 18.515625 C 58.808594 20.113281 59.867188 21.714844 61.152344 23.3125 L 62.441406 26.367188 L 62.230469 25.371094 L 61.566406 23.503906 L 58.3125 18.28125 L 59.535156 19.6875 L 57.566406 17.078125 C 57.089844 16.871094 57.074219 16.96875 57.523438 17.371094 L 55.484375 15.769531 L 57.644531 17.808594 L 56.835938 17.257812 L 54.449219 15.277344 L 54.808594 15.238281 L 52.257812 13.230469 L 44.847656 10.03125 L 35.507812 9.578125 M 51.730469 62.320312 L 45.992188 63.953125 L 43.949219 64.515625 L 43.9375 64.664062 L 49 63.929688 L 47.761719 63.957031 L 51.730469 62.320312 M 30.167969 62.835938 L 30.09375 62.960938 L 30.023438 63.089844 L 36.15625 64.917969 L 36.78125 64.796875 L 30.167969 62.835938 M 32.296875 7.894531 L 29.859375 8.121094 L 24.871094 10.273438 L 19.449219 13.628906 L 18.199219 14.117188 L 13.800781 19.144531 L 15.472656 16.734375 C 13.582031 18.855469 12.285156 20.511719 11.578125 21.703125 L 9.582031 26.777344 L 7.765625 33.792969 L 7.4375 41.085938 L 8.433594 43.871094 L 8.632812 43.558594 L 8.371094 41.777344 L 9.972656 46.09375 L 12.664062 50.867188 L 16.449219 56.0625 C 13.0625 51.820312 11.148438 49.273438 10.710938 48.417969 L 14.375 53.929688 L 18.421875 58.191406 C 20.066406 59.230469 21.722656 60.371094 23.394531 61.613281 L 28.136719 63.660156 L 34.078125 65.265625 L 35.292969 65.375 L 31.640625 64.476562 L 25.257812 62.242188 L 19.320312 58.351562 L 14.738281 53.632812 L 14.164062 52.691406 L 18.964844 57.769531 L 23.886719 61.050781 L 20.066406 58.367188 L 15.453125 53.972656 L 12.984375 50.410156 L 9.875 44.566406 L 8.765625 37.152344 L 9.648438 32.015625 L 10.730469 27.777344 L 13.921875 20.960938 L 15.136719 19.496094 L 11.695312 25.730469 L 10.207031 30.101562 L 12.132812 26.09375 L 11.726562 26.390625 L 14.324219 21.035156 L 19.421875 15.113281 L 24.128906 12.375 L 29.867188 9.75 L 24.660156 11.710938 L 29.457031 9.679688 L 35.039062 8.558594 L 40.871094 8.894531 L 41.128906 8.71875 L 44.128906 9.382812 L 41.355469 8.449219 L 35.875 8.0625 C 31.515625 8.511719 29.023438 8.859375 28.398438 9.109375 L 32.296875 7.894531 M 49.945312 65.332031 L 49.296875 65.441406 L 42.246094 66.375 L 35.902344 66.691406 L 43.566406 66.523438 L 47.921875 65.765625 L 49.738281 65.542969 L 49.945312 65.332031 M 47.027344 66.820312 L 39.792969 67.535156 L 43.339844 67.410156 L 44.765625 67.332031 L 47.027344 66.820312 M 39.792969 67.535156 L 39.667969 67.542969 L 39.542969 67.546875 L 39.640625 67.550781 C 39.691406 67.546875 39.742188 67.542969 39.792969 67.535156 M 29.394531 66.648438 L 36.308594 67.660156 L 39.542969 67.546875 L 32.890625 67.097656 L 29.394531 66.648438 " fill-opacity="1" fill-rule="nonzero"/></g><g fill="#ffffff" fill-opacity="1"><g transform="translate(24.70673, 45.873478)"><g><path d="M 11.9375 -7.953125 C 11.9375 -6.671875 11.832031 -5.523438 11.625 -4.515625 C 11.425781 -3.503906 11.109375 -2.644531 10.671875 -1.9375 C 10.234375 -1.238281 9.65625 -0.703125 8.9375 -0.328125 C 8.226562 0.0351562 7.367188 0.21875 6.359375 0.21875 C 5.078125 0.21875 4.023438 -0.101562 3.203125 -0.75 C 2.390625 -1.40625 1.785156 -2.34375 1.390625 -3.5625 C 1.003906 -4.789062 0.8125 -6.253906 0.8125 -7.953125 C 0.8125 -9.671875 0.988281 -11.140625 1.34375 -12.359375 C 1.707031 -13.585938 2.296875 -14.53125 3.109375 -15.1875 C 3.921875 -15.84375 5.003906 -16.171875 6.359375 -16.171875 C 7.628906 -16.171875 8.675781 -15.84375 9.5 -15.1875 C 10.320312 -14.539062 10.929688 -13.601562 11.328125 -12.375 C 11.734375 -11.15625 11.9375 -9.679688 11.9375 -7.953125 Z M 4.140625 -7.953125 C 4.140625 -6.742188 4.207031 -5.734375 4.34375 -4.921875 C 4.476562 -4.117188 4.707031 -3.515625 5.03125 -3.109375 C 5.351562 -2.703125 5.796875 -2.5 6.359375 -2.5 C 6.921875 -2.5 7.363281 -2.695312 7.6875 -3.09375 C 8.007812 -3.5 8.238281 -4.101562 8.375 -4.90625 C 8.507812 -5.71875 8.578125 -6.734375 8.578125 -7.953125 C 8.578125 -9.171875 8.507812 -10.1875 8.375 -11 C 8.238281 -11.8125 8.007812 -12.421875 7.6875 -12.828125 C 7.363281 -13.242188 6.921875 -13.453125 6.359375 -13.453125 C 5.796875 -13.453125 5.351562 -13.242188 5.03125 -12.828125 C 4.707031 -12.421875 4.476562 -11.8125 4.34375 -11 C 4.207031 -10.1875 4.140625 -9.171875 4.140625 -7.953125 Z M 4.140625 -7.953125 "/></g></g><g transform="translate(37.457509, 45.873478)"><g><path d="M 12.015625 0 L 0.890625 0 L 0.890625 -2.34375 L 4.890625 -6.375 C 5.691406 -7.207031 6.335938 -7.898438 6.828125 -8.453125 C 7.316406 -9.003906 7.671875 -9.507812 7.890625 -9.96875 C 8.117188 -10.425781 8.234375 -10.914062 8.234375 -11.4375 C 8.234375 -12.070312 8.054688 -12.546875 7.703125 -12.859375 C 7.347656 -13.179688 6.878906 -13.34375 6.296875 -13.34375 C 5.679688 -13.34375 5.082031 -13.195312 4.5 -12.90625 C 3.914062 -12.625 3.304688 -12.222656 2.671875 -11.703125 L 0.84375 -13.875 C 1.300781 -14.257812 1.785156 -14.625 2.296875 -14.96875 C 2.804688 -15.320312 3.398438 -15.601562 4.078125 -15.8125 C 4.765625 -16.03125 5.582031 -16.140625 6.53125 -16.140625 C 7.570312 -16.140625 8.46875 -15.953125 9.21875 -15.578125 C 9.976562 -15.203125 10.5625 -14.6875 10.96875 -14.03125 C 11.375 -13.382812 11.578125 -12.648438 11.578125 -11.828125 C 11.578125 -10.953125 11.398438 -10.148438 11.046875 -9.421875 C 10.703125 -8.703125 10.195312 -7.984375 9.53125 -7.265625 C 8.863281 -6.554688 8.0625 -5.769531 7.125 -4.90625 L 5.078125 -2.984375 L 5.078125 -2.828125 L 12.015625 -2.828125 Z M 12.015625 0 "/></g></g></g></svg>