<svg xmlns="http://www.w3.org/2000/svg" xmlns:xlink="http://www.w3.org/1999/xlink" width="1280" zoomAndPan="magnify" viewBox="0 0 960 374.999991" height="500" preserveAspectRatio="xMidYMid meet" version="1.0"><defs><g/><clipPath id="5418ee540b"><path d="M 351.941406 66.167969 L 610.691406 66.167969 L 610.691406 324.917969 L 351.941406 324.917969 Z M 351.941406 66.167969 " clip-rule="nonzero"/></clipPath></defs><g fill="#1a1a1a" fill-opacity="1"><g transform="translate(103.395634, 273.979149)"><g><path d="M 125.265625 0 L 125.265625 -44.546875 L 10.765625 -44.546875 L 10.765625 -92.375 L 117.5 -211.671875 L 176.09375 -211.671875 L 176.09375 -84.609375 L 210.171875 -84.609375 L 210.171875 -44.546875 L 176.09375 -44.546875 L 176.09375 0 Z M 125.265625 -84.609375 L 127.65625 -167.125 L 59.203125 -84.609375 Z M 125.265625 -84.609375 "/></g></g></g><g fill="#1a1a1a" fill-opacity="1"><g transform="translate(637.44782, 273.979149)"><g><path d="M 125.265625 0 L 125.265625 -44.546875 L 10.765625 -44.546875 L 10.765625 -92.375 L 117.5 -211.671875 L 176.09375 -211.671875 L 176.09375 -84.609375 L 210.171875 -84.609375 L 210.171875 -44.546875 L 176.09375 -44.546875 L 176.09375 0 Z M 125.265625 -84.609375 L 127.65625 -167.125 L 59.203125 -84.609375 Z M 125.265625 -84.609375 "/></g></g></g><g clip-path="url(#5418ee540b)"><path fill="#ff5400" d="M 481.171875 66.125 C 552.527344 66.125 610.359375 123.964844 610.359375 195.3125 C 610.359375 249.761719 576.667969 296.34375 528.988281 315.355469 L 527.105469 274.648438 L 527.105469 274.570312 C 527.207031 266.519531 530.609375 260.175781 538.152344 256.984375 L 539.121094 256.597656 L 539.171875 256.578125 L 539.230469 256.554688 L 539.328125 256.519531 C 544.878906 254.269531 549.402344 251.242188 552.484375 246 C 556.332031 239.46875 557.078125 230.765625 557.078125 223.363281 C 557.078125 209.125 552.882812 192.316406 545.648438 180.007812 C 540.511719 171.265625 532.40625 162.414062 521.464844 162.414062 C 510.523438 162.414062 502.417969 171.265625 497.28125 180.007812 C 490.046875 192.316406 485.851562 209.125 485.851562 223.363281 C 485.851562 230.777344 486.597656 239.476562 490.445312 246 C 493.558594 251.277344 498.136719 254.3125 503.714844 256.5625 C 503.871094 256.621094 504.027344 256.691406 504.183594 256.75 L 504.226562 256.75 L 504.710938 256.960938 C 512.277344 260.144531 515.722656 266.414062 515.824219 274.570312 L 515.824219 274.648438 L 513.707031 320.371094 C 503.308594 323.070312 492.410156 324.507812 481.171875 324.507812 C 469.539062 324.507812 458.269531 322.957031 447.542969 320.078125 L 445.5625 277.269531 L 445.5625 277.175781 C 445.664062 268.921875 449.183594 262.417969 456.910156 259.148438 L 457.894531 258.757812 L 457.929688 258.75 L 457.964844 258.734375 L 458.078125 258.691406 C 463.527344 256.484375 467.972656 253.515625 471 248.371094 C 474.796875 241.925781 475.523438 233.285156 475.523438 225.976562 C 475.523438 225.265625 475.5 224.558594 475.457031 223.847656 C 475.429688 223.441406 475.394531 223.035156 475.34375 222.636719 L 475.273438 222.039062 L 475.386719 221.632812 L 470.6875 166.992188 L 465.777344 167 L 465.351562 224.746094 L 457.167969 225.558594 L 452.308594 160.289062 L 446.980469 160.605469 L 445.925781 226.363281 L 443.027344 226.484375 C 442.421875 226.511719 441.816406 226.519531 441.21875 226.519531 C 440.613281 226.519531 440 226.511719 439.394531 226.484375 L 436.511719 226.363281 L 435.035156 160.605469 L 429.707031 160.296875 L 425.269531 225.570312 L 417.078125 224.753906 L 416.660156 167 L 411.722656 167 L 405.375 221.660156 L 405.476562 222.046875 L 405.40625 222.628906 C 405.363281 223.035156 405.328125 223.441406 405.304688 223.847656 C 405.261719 224.558594 405.234375 225.265625 405.234375 225.976562 C 405.234375 233.285156 405.960938 241.925781 409.757812 248.371094 C 412.8125 253.558594 417.308594 256.527344 422.792969 258.734375 C 422.925781 258.785156 423.054688 258.835938 423.175781 258.886719 L 423.21875 258.886719 L 423.789062 259.128906 C 431.53125 262.390625 435.085938 268.828125 435.199219 277.175781 L 435.199219 277.269531 L 433.433594 315.417969 C 385.695312 296.4375 351.949219 249.824219 351.949219 195.320312 C 351.984375 123.957031 409.820312 66.125 481.171875 66.125 " fill-opacity="1" fill-rule="evenodd"/></g></svg>