<svg xmlns="http://www.w3.org/2000/svg" xmlns:xlink="http://www.w3.org/1999/xlink" width="100" zoomAndPan="magnify" viewBox="0 0 75 74.999997" height="100" preserveAspectRatio="xMidYMid meet" version="1.0"><defs><clipPath id="4462439469"><path d="M 3.382812 3.382812 L 71.632812 3.382812 L 71.632812 71.632812 L 3.382812 71.632812 Z M 3.382812 3.382812 " clip-rule="nonzero"/></clipPath></defs><g clip-path="url(#4462439469)"><path fill="#ff5400" d="M 37.507812 3.371094 C 56.351562 3.371094 71.621094 18.644531 71.621094 37.484375 C 71.621094 51.863281 62.726562 64.164062 50.132812 69.183594 L 49.636719 58.433594 L 49.636719 58.414062 C 49.664062 56.289062 50.5625 54.613281 52.554688 53.769531 L 52.808594 53.667969 L 52.824219 53.664062 L 52.839844 53.65625 L 52.863281 53.648438 C 54.332031 53.054688 55.523438 52.253906 56.339844 50.871094 C 57.355469 49.144531 57.550781 46.847656 57.550781 44.894531 C 57.550781 41.132812 56.445312 36.695312 54.535156 33.445312 C 53.175781 31.136719 51.035156 28.796875 48.148438 28.796875 C 45.257812 28.796875 43.117188 31.136719 41.761719 33.445312 C 39.851562 36.695312 38.742188 41.132812 38.742188 44.894531 C 38.742188 46.851562 38.941406 49.148438 39.957031 50.871094 C 40.777344 52.261719 41.988281 53.066406 43.460938 53.660156 C 43.5 53.675781 43.542969 53.691406 43.582031 53.710938 L 43.59375 53.710938 L 43.722656 53.765625 C 45.722656 54.605469 46.628906 56.261719 46.660156 58.414062 L 46.660156 58.433594 L 46.097656 70.507812 C 43.351562 71.222656 40.476562 71.601562 37.507812 71.601562 C 34.4375 71.601562 31.460938 71.191406 28.628906 70.429688 L 28.105469 59.128906 L 28.105469 59.101562 C 28.132812 56.921875 29.0625 55.207031 31.101562 54.34375 L 31.363281 54.238281 L 31.371094 54.238281 L 31.378906 54.230469 L 31.410156 54.222656 C 32.847656 53.636719 34.023438 52.855469 34.820312 51.496094 C 35.824219 49.792969 36.015625 47.511719 36.015625 45.582031 C 36.015625 45.394531 36.007812 45.207031 36 45.019531 C 35.992188 44.914062 35.980469 44.804688 35.96875 44.699219 L 35.949219 44.542969 L 35.980469 44.4375 L 34.738281 30.007812 L 33.441406 30.007812 L 33.332031 45.257812 L 31.167969 45.472656 L 29.886719 28.238281 L 28.480469 28.320312 L 28.199219 45.683594 L 27.433594 45.71875 C 27.273438 45.722656 27.117188 45.726562 26.957031 45.726562 C 26.796875 45.726562 26.636719 45.722656 26.476562 45.71875 L 25.714844 45.683594 L 25.324219 28.320312 L 23.917969 28.238281 L 22.746094 45.476562 L 20.582031 45.261719 L 20.472656 30.007812 L 19.167969 30.007812 L 17.492188 44.441406 L 17.519531 44.546875 L 17.5 44.699219 C 17.488281 44.804688 17.480469 44.914062 17.472656 45.019531 C 17.460938 45.207031 17.457031 45.394531 17.457031 45.582031 C 17.457031 47.511719 17.648438 49.792969 18.652344 51.496094 C 19.457031 52.867188 20.644531 53.648438 22.09375 54.230469 C 22.125 54.246094 22.160156 54.261719 22.191406 54.273438 L 22.203125 54.273438 L 22.355469 54.335938 C 24.398438 55.199219 25.339844 56.898438 25.367188 59.101562 L 25.367188 59.128906 L 24.902344 69.199219 C 12.296875 64.1875 3.386719 51.878906 3.386719 37.488281 C 3.394531 18.644531 18.667969 3.371094 37.507812 3.371094 " fill-opacity="1" fill-rule="evenodd"/></g></svg>